<svg xmlns="http://www.w3.org/2000/svg" xmlns:xlink="http://www.w3.org/1999/xlink" viewBox="0,0,256,256" width="48px" height="48px"><g fill-opacity="0" fill="#dddddd" fill-rule="nonzero" stroke="none" stroke-width="1" stroke-linecap="butt" stroke-linejoin="miter" stroke-miterlimit="10" stroke-dasharray="" stroke-dashoffset="0" font-family="none" font-weight="none" font-size="none" text-anchor="none" style="mix-blend-mode: normal"><path d="M0,256v-256h256v256z" id="bgRectangle"></path></g><g fill="#ffffff" fill-rule="nonzero" stroke="none" stroke-width="1" stroke-linecap="butt" stroke-linejoin="miter" stroke-miterlimit="10" stroke-dasharray="" stroke-dashoffset="0" font-family="none" font-weight="none" font-size="none" text-anchor="none" style="mix-blend-mode: normal"><g transform="scale(5.33333,5.33333)"><path d="M20,23.474v8.026c0,0.828 -0.672,1.5 -1.5,1.5c-0.828,0 -1.5,-0.672 -1.5,-1.5v-13c0,-0.659 0.431,-1.241 1.062,-1.435c0.627,-0.19 1.314,0.049 1.682,0.596l0.249,0.37l0.007,-0.031l15.234,22.546c5.29,-3.599 8.766,-9.666 8.766,-16.546c0,-11.046 -8.954,-20 -20,-20c-11.046,0 -20,8.954 -20,20c0,11.046 8.954,20 20,20c3.082,0 5.99,-0.718 8.597,-1.963zM28,16.5c0,-0.828 0.672,-1.5 1.5,-1.5c0.828,0 1.5,0.672 1.5,1.5v12.79l-3,-4.304z"></path></g></g></svg>